<mxfile host="app.diagrams.net" agent="Mozilla/5.0 (Windows NT 10.0; Win64; x64) AppleWebKit/537.36 (KHTML, like Gecko) Chrome/134.0.0.0 Safari/537.36" version="26.0.16">
  <diagram name="Page-1" id="NJxr4DwGzoDsMgVXAqQR">
    <mxGraphModel dx="794" dy="458" grid="1" gridSize="10" guides="1" tooltips="1" connect="1" arrows="1" fold="1" page="1" pageScale="1" pageWidth="850" pageHeight="1100" math="0" shadow="0">
      <root>
        <mxCell id="0" />
        <mxCell id="1" parent="0" />
        <mxCell id="HjP3A788aH9t6Q6tnlUN-9" style="edgeStyle=orthogonalEdgeStyle;rounded=0;orthogonalLoop=1;jettySize=auto;html=1;exitX=0;exitY=1;exitDx=0;exitDy=0;entryX=0.25;entryY=0;entryDx=0;entryDy=0;" edge="1" parent="1" source="HjP3A788aH9t6Q6tnlUN-1" target="HjP3A788aH9t6Q6tnlUN-2">
          <mxGeometry relative="1" as="geometry" />
        </mxCell>
        <mxCell id="HjP3A788aH9t6Q6tnlUN-14" style="edgeStyle=orthogonalEdgeStyle;rounded=0;orthogonalLoop=1;jettySize=auto;html=1;entryX=0;entryY=0.5;entryDx=0;entryDy=0;" edge="1" parent="1" source="HjP3A788aH9t6Q6tnlUN-1" target="HjP3A788aH9t6Q6tnlUN-4">
          <mxGeometry relative="1" as="geometry" />
        </mxCell>
        <mxCell id="HjP3A788aH9t6Q6tnlUN-1" value="Atmega328" style="rhombus;whiteSpace=wrap;html=1;" vertex="1" parent="1">
          <mxGeometry x="230" y="210" width="80" height="80" as="geometry" />
        </mxCell>
        <mxCell id="HjP3A788aH9t6Q6tnlUN-10" style="edgeStyle=orthogonalEdgeStyle;rounded=0;orthogonalLoop=1;jettySize=auto;html=1;exitX=0.75;exitY=0;exitDx=0;exitDy=0;entryX=1;entryY=1;entryDx=0;entryDy=0;" edge="1" parent="1" source="HjP3A788aH9t6Q6tnlUN-2" target="HjP3A788aH9t6Q6tnlUN-1">
          <mxGeometry relative="1" as="geometry" />
        </mxCell>
        <mxCell id="HjP3A788aH9t6Q6tnlUN-2" value="Mini Electric Piano" style="rounded=1;whiteSpace=wrap;html=1;" vertex="1" parent="1">
          <mxGeometry x="210" y="340" width="120" height="60" as="geometry" />
        </mxCell>
        <mxCell id="HjP3A788aH9t6Q6tnlUN-6" style="edgeStyle=orthogonalEdgeStyle;rounded=0;orthogonalLoop=1;jettySize=auto;html=1;entryX=0;entryY=0.5;entryDx=0;entryDy=0;" edge="1" parent="1" source="HjP3A788aH9t6Q6tnlUN-3" target="HjP3A788aH9t6Q6tnlUN-1">
          <mxGeometry relative="1" as="geometry">
            <mxPoint x="170" y="250" as="targetPoint" />
            <Array as="points">
              <mxPoint x="170" y="250" />
            </Array>
          </mxGeometry>
        </mxCell>
        <mxCell id="HjP3A788aH9t6Q6tnlUN-3" value="Input/Output Key Control Buttons (x6)" style="whiteSpace=wrap;html=1;aspect=fixed;" vertex="1" parent="1">
          <mxGeometry x="130" y="90" width="80" height="80" as="geometry" />
        </mxCell>
        <mxCell id="HjP3A788aH9t6Q6tnlUN-4" value="Display (Shows input/output keys and octaves)" style="rounded=0;whiteSpace=wrap;html=1;" vertex="1" parent="1">
          <mxGeometry x="410" y="220" width="120" height="60" as="geometry" />
        </mxCell>
        <mxCell id="HjP3A788aH9t6Q6tnlUN-8" style="edgeStyle=orthogonalEdgeStyle;rounded=0;orthogonalLoop=1;jettySize=auto;html=1;entryX=0.5;entryY=0;entryDx=0;entryDy=0;" edge="1" parent="1" source="HjP3A788aH9t6Q6tnlUN-5" target="HjP3A788aH9t6Q6tnlUN-1">
          <mxGeometry relative="1" as="geometry" />
        </mxCell>
        <mxCell id="HjP3A788aH9t6Q6tnlUN-5" value="Input/Output Octave Control Buttons (x4)" style="whiteSpace=wrap;html=1;aspect=fixed;" vertex="1" parent="1">
          <mxGeometry x="310" y="90" width="80" height="80" as="geometry" />
        </mxCell>
        <mxCell id="HjP3A788aH9t6Q6tnlUN-11" value="UART" style="text;html=1;align=center;verticalAlign=middle;resizable=0;points=[];autosize=1;strokeColor=none;fillColor=none;" vertex="1" parent="1">
          <mxGeometry x="240" y="310" width="60" height="30" as="geometry" />
        </mxCell>
        <mxCell id="HjP3A788aH9t6Q6tnlUN-12" value="PC Interrupts" style="text;html=1;align=center;verticalAlign=middle;resizable=0;points=[];autosize=1;strokeColor=none;fillColor=none;" vertex="1" parent="1">
          <mxGeometry x="130" y="250" width="90" height="30" as="geometry" />
        </mxCell>
        <mxCell id="HjP3A788aH9t6Q6tnlUN-13" value="PC Interrupts" style="text;html=1;align=center;verticalAlign=middle;resizable=0;points=[];autosize=1;strokeColor=none;fillColor=none;" vertex="1" parent="1">
          <mxGeometry x="300" y="190" width="90" height="30" as="geometry" />
        </mxCell>
        <mxCell id="HjP3A788aH9t6Q6tnlUN-15" value="USART or I2C" style="text;html=1;align=center;verticalAlign=middle;resizable=0;points=[];autosize=1;strokeColor=none;fillColor=none;" vertex="1" parent="1">
          <mxGeometry x="320" y="248" width="100" height="30" as="geometry" />
        </mxCell>
      </root>
    </mxGraphModel>
  </diagram>
</mxfile>
